<svg width="16" height="16" viewBox="0 0 16 16" fill="none" xmlns="http://www.w3.org/2000/svg">
<g opacity="0.5" clip-path="url(#clip0_36_249)">
<path d="M6.00004 13.3333H4.00004C3.2928 13.3333 2.61452 13.0524 2.11442 12.5523C1.61433 12.0522 1.33337 11.3739 1.33337 10.6667V4.66667C1.33337 3.95942 1.61433 3.28115 2.11442 2.78105C2.61452 2.28095 3.2928 2 4.00004 2H11.3334C12.0406 2 12.7189 2.28095 13.219 2.78105C13.7191 3.28115 14 3.95942 14 4.66667V6.66667M5.33337 1.33333V2.66667M10 1.33333V2.66667M1.33337 5.33333H14M12.3334 10.4287L11.3334 11.4287" stroke="black" stroke-linecap="round" stroke-linejoin="round"/>
<path d="M11.3333 14.6667C13.1743 14.6667 14.6667 13.1743 14.6667 11.3333C14.6667 9.49238 13.1743 8 11.3333 8C9.49238 8 8 9.49238 8 11.3333C8 13.1743 9.49238 14.6667 11.3333 14.6667Z" stroke="black" stroke-linecap="round" stroke-linejoin="round"/>
</g>
<defs>
<clipPath id="clip0_36_249">
<rect width="16" height="16" fill="white"/>
</clipPath>
</defs>
</svg>
