<svg width="25" height="24" viewBox="0 0 25 24" fill="none" xmlns="http://www.w3.org/2000/svg">
<g opacity="0.5">
<path d="M8.02881 14C7.74548 14 7.50781 13.904 7.31581 13.712C7.12381 13.52 7.02814 13.2827 7.02881 13C7.02881 12.7167 7.12481 12.479 7.31681 12.287C7.50881 12.095 7.74614 11.9993 8.02881 12C8.31214 12 8.54981 12.096 8.74181 12.288C8.93381 12.48 9.02948 12.7173 9.02881 13C9.02881 13.2833 8.93281 13.521 8.74081 13.713C8.54881 13.905 8.31148 14.0007 8.02881 14ZM12.0288 14C11.7455 14 11.5078 13.904 11.3158 13.712C11.1238 13.52 11.0281 13.2827 11.0288 13C11.0288 12.7167 11.1248 12.479 11.3168 12.287C11.5088 12.095 11.7461 11.9993 12.0288 12C12.3121 12 12.5498 12.096 12.7418 12.288C12.9338 12.48 13.0295 12.7173 13.0288 13C13.0288 13.2833 12.9328 13.521 12.7408 13.713C12.5488 13.905 12.3115 14.0007 12.0288 14ZM16.0288 14C15.7455 14 15.5078 13.904 15.3158 13.712C15.1238 13.52 15.0281 13.2827 15.0288 13C15.0288 12.7167 15.1248 12.479 15.3168 12.287C15.5088 12.095 15.7461 11.9993 16.0288 12C16.3121 12 16.5498 12.096 16.7418 12.288C16.9338 12.48 17.0295 12.7173 17.0288 13C17.0288 13.2833 16.9328 13.521 16.7408 13.713C16.5488 13.905 16.3115 14.0007 16.0288 14ZM5.02881 22C4.47881 22 4.00781 21.804 3.61581 21.412C3.22381 21.02 3.02814 20.5493 3.02881 20V6C3.02881 5.45 3.22481 4.979 3.61681 4.587C4.00881 4.195 4.47948 3.99933 5.02881 4H6.02881V2H8.02881V4H16.0288V2H18.0288V4H19.0288C19.5788 4 20.0498 4.196 20.4418 4.588C20.8338 4.98 21.0295 5.45067 21.0288 6V20C21.0288 20.55 20.8328 21.021 20.4408 21.413C20.0488 21.805 19.5781 22.0007 19.0288 22H5.02881ZM5.02881 20H19.0288V10H5.02881V20ZM5.02881 8H19.0288V6H5.02881V8Z" fill="black"/>
</g>
</svg>
