<svg width="34" height="34" viewBox="0 0 34 34" fill="none" xmlns="http://www.w3.org/2000/svg">
<rect width="34" height="34" rx="10" fill="#F2F2F2"/>
<g opacity="0.5">
<path d="M11.5833 26.75C10.9874 26.75 10.4772 26.5377 10.0525 26.113C9.62784 25.6883 9.41586 25.1784 9.41659 24.5833V10.5H8.33325V8.33333H13.7499V7.25H20.2499V8.33333H25.6666V10.5H24.5833V24.5833C24.5833 25.1792 24.3709 25.6894 23.9463 26.1141C23.5216 26.5388 23.0117 26.7507 22.4166 26.75H11.5833ZM22.4166 10.5H11.5833V24.5833H22.4166V10.5ZM13.7499 22.4167H15.9166V12.6667H13.7499V22.4167ZM18.0833 22.4167H20.2499V12.6667H18.0833V22.4167Z" fill="black"/>
</g>
</svg>
