<svg width="34" height="34" viewBox="0 0 34 34" fill="none" xmlns="http://www.w3.org/2000/svg">
<rect width="34" height="34" rx="10" fill="#F2F2F2"/>
<path opacity="0.5" d="M20.7959 6.73489C21.524 6.02354 22.5032 5.62793 23.5211 5.63385C24.539 5.63978 25.5136 6.04677 26.2333 6.76655C26.9531 7.48633 27.3601 8.46086 27.366 9.47877C27.372 10.4967 26.9763 11.4759 26.265 12.204L25.3953 13.0737L19.9262 7.60459L20.7959 6.73489ZM19.0071 8.52499L8.6084 18.9237C8.18288 19.3497 7.88752 19.8881 7.7569 20.4759L6.6155 25.6109C6.59162 25.7177 6.59512 25.8289 6.62567 25.934C6.65622 26.0391 6.71282 26.1348 6.79023 26.2123C6.86765 26.2897 6.96336 26.3463 7.06848 26.3768C7.17361 26.4074 7.28475 26.4109 7.3916 26.387L12.4954 25.2521C13.1031 25.1168 13.6596 24.8111 14.0996 24.3707L24.4762 13.9941L19.0071 8.52499Z" fill="black"/>
</svg>
