<svg width="42" height="42" viewBox="0 0 42 42" fill="none" xmlns="http://www.w3.org/2000/svg">
<path d="M23.2411 21.9286L16.6786 28.4911C16.5567 28.613 16.4119 28.7098 16.2526 28.7758C16.0932 28.8418 15.9225 28.8757 15.75 28.8757C15.5775 28.8757 15.4068 28.8418 15.2474 28.7758C15.0881 28.7098 14.9433 28.613 14.8214 28.4911C14.6995 28.3692 14.6027 28.2244 14.5367 28.0651C14.4707 27.9057 14.4368 27.735 14.4368 27.5625C14.4368 27.39 14.4707 27.2193 14.5367 27.0599C14.6027 26.9006 14.6995 26.7558 14.8214 26.6339L19.1445 22.3125H3.9375C3.5894 22.3125 3.25556 22.1742 3.00942 21.9281C2.76328 21.6819 2.625 21.3481 2.625 21C2.625 20.6519 2.76328 20.3181 3.00942 20.0719C3.25556 19.8258 3.5894 19.6875 3.9375 19.6875H19.1445L14.8214 15.3661C14.5751 15.1198 14.4368 14.7858 14.4368 14.4375C14.4368 14.0892 14.5751 13.7552 14.8214 13.5089C15.0677 13.2626 15.4017 13.1243 15.75 13.1243C16.0983 13.1243 16.4323 13.2626 16.6786 13.5089L23.2411 20.0714C23.3631 20.1933 23.4599 20.3381 23.526 20.4974C23.592 20.6567 23.626 20.8275 23.626 21C23.626 21.1725 23.592 21.3433 23.526 21.5026C23.4599 21.6619 23.3631 21.8067 23.2411 21.9286ZM31.5 5.25H22.3125C21.9644 5.25 21.6306 5.38828 21.3844 5.63442C21.1383 5.88056 21 6.2144 21 6.5625C21 6.9106 21.1383 7.24444 21.3844 7.49058C21.6306 7.73672 21.9644 7.875 22.3125 7.875H31.5V34.125H22.3125C21.9644 34.125 21.6306 34.2633 21.3844 34.5094C21.1383 34.7556 21 35.0894 21 35.4375C21 35.7856 21.1383 36.1194 21.3844 36.3656C21.6306 36.6117 21.9644 36.75 22.3125 36.75H31.5C32.1962 36.75 32.8639 36.4734 33.3562 35.9812C33.8484 35.4889 34.125 34.8212 34.125 34.125V7.875C34.125 7.17881 33.8484 6.51113 33.3562 6.01884C32.8639 5.52656 32.1962 5.25 31.5 5.25Z" fill="white"/>
</svg>
