<svg width="42" height="42" viewBox="0 0 42 42" fill="none" xmlns="http://www.w3.org/2000/svg">
<path d="M18.7589 21.9286L25.3214 28.4911C25.4433 28.613 25.5881 28.7098 25.7474 28.7758C25.9068 28.8418 26.0775 28.8757 26.25 28.8757C26.4225 28.8757 26.5932 28.8418 26.7526 28.7758C26.9119 28.7098 27.0567 28.613 27.1786 28.4911C27.3005 28.3692 27.3973 28.2244 27.4633 28.0651C27.5293 27.9057 27.5632 27.735 27.5632 27.5625C27.5632 27.39 27.5293 27.2193 27.4633 27.0599C27.3973 26.9006 27.3005 26.7558 27.1786 26.6339L22.8555 22.3125H38.0625C38.4106 22.3125 38.7444 22.1742 38.9906 21.9281C39.2367 21.6819 39.375 21.3481 39.375 21C39.375 20.6519 39.2367 20.3181 38.9906 20.0719C38.7444 19.8258 38.4106 19.6875 38.0625 19.6875H22.8555L27.1786 15.3661C27.4249 15.1198 27.5632 14.7858 27.5632 14.4375C27.5632 14.0892 27.4249 13.7552 27.1786 13.5089C26.9323 13.2626 26.5983 13.1243 26.25 13.1243C25.9017 13.1243 25.5677 13.2626 25.3214 13.5089L18.7589 20.0714C18.6369 20.1933 18.5401 20.3381 18.474 20.4974C18.408 20.6567 18.374 20.8275 18.374 21C18.374 21.1725 18.408 21.3433 18.474 21.5026C18.5401 21.6619 18.6369 21.8067 18.7589 21.9286ZM10.5 5.25H19.6875C20.0356 5.25 20.3694 5.38828 20.6156 5.63442C20.8617 5.88056 21 6.2144 21 6.5625C21 6.9106 20.8617 7.24444 20.6156 7.49058C20.3694 7.73672 20.0356 7.875 19.6875 7.875H10.5V34.125H19.6875C20.0356 34.125 20.3694 34.2633 20.6156 34.5094C20.8617 34.7556 21 35.0894 21 35.4375C21 35.7856 20.8617 36.1194 20.6156 36.3656C20.3694 36.6117 20.0356 36.75 19.6875 36.75H10.5C9.80381 36.75 9.13613 36.4734 8.64384 35.9812C8.15156 35.4889 7.875 34.8212 7.875 34.125V7.875C7.875 7.17881 8.15156 6.51113 8.64384 6.01884C9.13613 5.52656 9.80381 5.25 10.5 5.25Z" fill="white"/>
</svg>
